<svg width="50" height="50" viewBox="0 0 50 50" fill="none" xmlns="http://www.w3.org/2000/svg">
<circle cx="25" cy="25" r="23.5" fill="black" fill-opacity="0.5" stroke="#8690FA" stroke-width="3"/>
<path d="M34.8624 21.9375C34.7586 21.7313 34.5996 21.558 34.4033 21.4366C34.2069 21.3153 33.9808 21.2507 33.7499 21.25H27.4999V13.75C27.5134 13.4758 27.4362 13.2049 27.2803 12.979C27.1244 12.7531 26.8985 12.5848 26.6374 12.5C26.3865 12.4174 26.1158 12.4165 25.8643 12.4973C25.6127 12.5782 25.3933 12.7367 25.2374 12.95L15.2374 26.7C15.1122 26.8811 15.0369 27.092 15.0194 27.3115C15.0018 27.531 15.0425 27.7513 15.1374 27.95C15.2249 28.1772 15.3767 28.3739 15.5743 28.516C15.7719 28.6581 16.0068 28.7394 16.2499 28.75H22.4999V36.25C22.5001 36.5136 22.5837 36.7704 22.7386 36.9837C22.8935 37.1969 23.1118 37.3558 23.3624 37.4375C23.488 37.4764 23.6185 37.4975 23.7499 37.5C23.9472 37.5005 24.1417 37.4543 24.3177 37.3653C24.4937 37.2762 24.6461 37.1467 24.7624 36.9875L34.7624 23.2375C34.8971 23.051 34.9777 22.8309 34.9954 22.6016C35.013 22.3722 34.967 22.1424 34.8624 21.9375ZM24.9999 32.4V27.5C24.9999 27.1685 24.8683 26.8505 24.6338 26.6161C24.3994 26.3817 24.0815 26.25 23.7499 26.25H18.7499L24.9999 17.6V22.5C24.9999 22.8315 25.1316 23.1495 25.3661 23.3839C25.6005 23.6183 25.9184 23.75 26.2499 23.75H31.2499L24.9999 32.4Z" fill="white"/>
</svg>
